<mxfile host="app.diagrams.net" modified="2020-11-19T15:10:13.167Z" agent="5.0 (Windows NT 10.0; Win64; x64) AppleWebKit/537.36 (KHTML, like Gecko) Chrome/86.0.4240.183 Safari/537.36 Edg/86.0.622.63" etag="LYPITR03VRJ97HJRaM4H" version="13.10.0" type="github">
  <diagram id="FWw0GGk8EPzHkkuNAPmF" name="Page-1">
    <mxGraphModel dx="791" dy="378" grid="1" gridSize="10" guides="1" tooltips="1" connect="1" arrows="1" fold="1" page="1" pageScale="1" pageWidth="827" pageHeight="1169" math="0" shadow="0">
      <root>
        <mxCell id="0" />
        <mxCell id="1" parent="0" />
        <mxCell id="gbo9J5vM7Mq-yWydvTOt-1" value="" style="rounded=0;whiteSpace=wrap;html=1;glass=0;labelBorderColor=none;" vertex="1" parent="1">
          <mxGeometry x="280" y="120" width="320" height="320" as="geometry" />
        </mxCell>
        <mxCell id="gbo9J5vM7Mq-yWydvTOt-2" value="" style="endArrow=none;html=1;entryX=0.001;entryY=0.126;entryDx=0;entryDy=0;entryPerimeter=0;exitX=1;exitY=0.125;exitDx=0;exitDy=0;exitPerimeter=0;" edge="1" parent="1" source="gbo9J5vM7Mq-yWydvTOt-1" target="gbo9J5vM7Mq-yWydvTOt-1">
          <mxGeometry width="50" height="50" relative="1" as="geometry">
            <mxPoint x="400" y="310" as="sourcePoint" />
            <mxPoint x="450" y="260" as="targetPoint" />
          </mxGeometry>
        </mxCell>
        <mxCell id="gbo9J5vM7Mq-yWydvTOt-3" value="" style="endArrow=none;html=1;entryX=0.001;entryY=0.126;entryDx=0;entryDy=0;entryPerimeter=0;exitX=1;exitY=0.125;exitDx=0;exitDy=0;exitPerimeter=0;" edge="1" parent="1">
          <mxGeometry width="50" height="50" relative="1" as="geometry">
            <mxPoint x="599.68" y="200" as="sourcePoint" />
            <mxPoint x="279.99999999999994" y="200.31999999999994" as="targetPoint" />
          </mxGeometry>
        </mxCell>
        <mxCell id="gbo9J5vM7Mq-yWydvTOt-4" value="" style="endArrow=none;html=1;entryX=0.001;entryY=0.126;entryDx=0;entryDy=0;entryPerimeter=0;exitX=1;exitY=0.125;exitDx=0;exitDy=0;exitPerimeter=0;" edge="1" parent="1">
          <mxGeometry width="50" height="50" relative="1" as="geometry">
            <mxPoint x="600" y="240" as="sourcePoint" />
            <mxPoint x="280.31999999999994" y="240.31999999999994" as="targetPoint" />
          </mxGeometry>
        </mxCell>
        <mxCell id="gbo9J5vM7Mq-yWydvTOt-5" value="" style="endArrow=none;html=1;entryX=0.001;entryY=0.126;entryDx=0;entryDy=0;entryPerimeter=0;exitX=1;exitY=0.125;exitDx=0;exitDy=0;exitPerimeter=0;" edge="1" parent="1">
          <mxGeometry width="50" height="50" relative="1" as="geometry">
            <mxPoint x="599.68" y="279.71" as="sourcePoint" />
            <mxPoint x="279.99999999999994" y="280.0299999999999" as="targetPoint" />
          </mxGeometry>
        </mxCell>
        <mxCell id="gbo9J5vM7Mq-yWydvTOt-6" value="" style="endArrow=none;html=1;entryX=0.001;entryY=0.126;entryDx=0;entryDy=0;entryPerimeter=0;exitX=1;exitY=0.125;exitDx=0;exitDy=0;exitPerimeter=0;" edge="1" parent="1">
          <mxGeometry width="50" height="50" relative="1" as="geometry">
            <mxPoint x="600" y="320" as="sourcePoint" />
            <mxPoint x="280.31999999999994" y="320.31999999999994" as="targetPoint" />
          </mxGeometry>
        </mxCell>
        <mxCell id="gbo9J5vM7Mq-yWydvTOt-7" value="" style="endArrow=none;html=1;entryX=0.001;entryY=0.126;entryDx=0;entryDy=0;entryPerimeter=0;exitX=1;exitY=0.125;exitDx=0;exitDy=0;exitPerimeter=0;" edge="1" parent="1">
          <mxGeometry width="50" height="50" relative="1" as="geometry">
            <mxPoint x="599.68" y="360" as="sourcePoint" />
            <mxPoint x="279.99999999999994" y="360.31999999999994" as="targetPoint" />
          </mxGeometry>
        </mxCell>
        <mxCell id="gbo9J5vM7Mq-yWydvTOt-8" value="" style="endArrow=none;html=1;entryX=0.001;entryY=0.126;entryDx=0;entryDy=0;entryPerimeter=0;exitX=1;exitY=0.125;exitDx=0;exitDy=0;exitPerimeter=0;" edge="1" parent="1">
          <mxGeometry width="50" height="50" relative="1" as="geometry">
            <mxPoint x="600" y="400" as="sourcePoint" />
            <mxPoint x="280.31999999999994" y="400.31999999999994" as="targetPoint" />
          </mxGeometry>
        </mxCell>
        <mxCell id="gbo9J5vM7Mq-yWydvTOt-9" value="" style="endArrow=none;html=1;entryX=0.001;entryY=0.126;entryDx=0;entryDy=0;entryPerimeter=0;" edge="1" parent="1" source="gbo9J5vM7Mq-yWydvTOt-1">
          <mxGeometry width="50" height="50" relative="1" as="geometry">
            <mxPoint x="320" y="369.68" as="sourcePoint" />
            <mxPoint x="320.31999999999994" y="119.99999999999994" as="targetPoint" />
          </mxGeometry>
        </mxCell>
        <mxCell id="gbo9J5vM7Mq-yWydvTOt-10" value="" style="endArrow=none;html=1;exitX=0.126;exitY=1.001;exitDx=0;exitDy=0;exitPerimeter=0;entryX=0.125;entryY=-0.001;entryDx=0;entryDy=0;entryPerimeter=0;" edge="1" parent="1" source="gbo9J5vM7Mq-yWydvTOt-1" target="gbo9J5vM7Mq-yWydvTOt-1">
          <mxGeometry width="50" height="50" relative="1" as="geometry">
            <mxPoint x="350" y="350" as="sourcePoint" />
            <mxPoint x="400" y="300" as="targetPoint" />
          </mxGeometry>
        </mxCell>
        <mxCell id="gbo9J5vM7Mq-yWydvTOt-13" value="" style="endArrow=none;html=1;entryX=0.25;entryY=0;entryDx=0;entryDy=0;exitX=0.25;exitY=1;exitDx=0;exitDy=0;" edge="1" parent="1" source="gbo9J5vM7Mq-yWydvTOt-1" target="gbo9J5vM7Mq-yWydvTOt-1">
          <mxGeometry width="50" height="50" relative="1" as="geometry">
            <mxPoint x="700" y="260" as="sourcePoint" />
            <mxPoint x="380.31999999999994" y="260.31999999999994" as="targetPoint" />
          </mxGeometry>
        </mxCell>
        <mxCell id="gbo9J5vM7Mq-yWydvTOt-14" value="" style="endArrow=none;html=1;entryX=0.374;entryY=0.001;entryDx=0;entryDy=0;entryPerimeter=0;" edge="1" parent="1" target="gbo9J5vM7Mq-yWydvTOt-1">
          <mxGeometry width="50" height="50" relative="1" as="geometry">
            <mxPoint x="400" y="440" as="sourcePoint" />
            <mxPoint x="390.31999999999994" y="270.31999999999994" as="targetPoint" />
          </mxGeometry>
        </mxCell>
        <mxCell id="gbo9J5vM7Mq-yWydvTOt-15" value="" style="endArrow=none;html=1;entryX=0.5;entryY=0;entryDx=0;entryDy=0;exitX=0.5;exitY=1;exitDx=0;exitDy=0;" edge="1" parent="1" source="gbo9J5vM7Mq-yWydvTOt-1" target="gbo9J5vM7Mq-yWydvTOt-1">
          <mxGeometry width="50" height="50" relative="1" as="geometry">
            <mxPoint x="720" y="280" as="sourcePoint" />
            <mxPoint x="400.31999999999994" y="280.31999999999994" as="targetPoint" />
          </mxGeometry>
        </mxCell>
        <mxCell id="gbo9J5vM7Mq-yWydvTOt-16" value="" style="endArrow=none;html=1;exitX=0.625;exitY=1;exitDx=0;exitDy=0;exitPerimeter=0;" edge="1" parent="1" source="gbo9J5vM7Mq-yWydvTOt-1">
          <mxGeometry width="50" height="50" relative="1" as="geometry">
            <mxPoint x="481" y="441" as="sourcePoint" />
            <mxPoint x="480" y="120" as="targetPoint" />
          </mxGeometry>
        </mxCell>
        <mxCell id="gbo9J5vM7Mq-yWydvTOt-17" value="" style="endArrow=none;html=1;entryX=0.75;entryY=0;entryDx=0;entryDy=0;exitX=0.75;exitY=1;exitDx=0;exitDy=0;" edge="1" parent="1" source="gbo9J5vM7Mq-yWydvTOt-1" target="gbo9J5vM7Mq-yWydvTOt-1">
          <mxGeometry width="50" height="50" relative="1" as="geometry">
            <mxPoint x="740" y="300" as="sourcePoint" />
            <mxPoint x="420.31999999999994" y="300.31999999999994" as="targetPoint" />
          </mxGeometry>
        </mxCell>
        <mxCell id="gbo9J5vM7Mq-yWydvTOt-18" value="" style="endArrow=none;html=1;" edge="1" parent="1">
          <mxGeometry width="50" height="50" relative="1" as="geometry">
            <mxPoint x="560" y="440" as="sourcePoint" />
            <mxPoint x="560" y="120" as="targetPoint" />
          </mxGeometry>
        </mxCell>
        <mxCell id="gbo9J5vM7Mq-yWydvTOt-19" value="" style="whiteSpace=wrap;html=1;aspect=fixed;glass=0;gradientColor=none;fillColor=#FF3333;" vertex="1" parent="1">
          <mxGeometry x="320" y="160" width="40" height="40" as="geometry" />
        </mxCell>
        <mxCell id="gbo9J5vM7Mq-yWydvTOt-22" value="" style="whiteSpace=wrap;html=1;aspect=fixed;glass=0;gradientColor=none;fillColor=#00FF80;" vertex="1" parent="1">
          <mxGeometry x="520" y="360" width="40" height="40" as="geometry" />
        </mxCell>
        <mxCell id="gbo9J5vM7Mq-yWydvTOt-24" value="" style="whiteSpace=wrap;html=1;aspect=fixed;glass=0;gradientColor=none;fillColor=#330000;" vertex="1" parent="1">
          <mxGeometry x="320" y="320" width="40" height="40" as="geometry" />
        </mxCell>
        <mxCell id="gbo9J5vM7Mq-yWydvTOt-26" value="" style="whiteSpace=wrap;html=1;aspect=fixed;glass=0;gradientColor=none;fillColor=#FF3333;" vertex="1" parent="1">
          <mxGeometry x="360" y="320" width="40" height="40" as="geometry" />
        </mxCell>
        <mxCell id="gbo9J5vM7Mq-yWydvTOt-27" value="" style="whiteSpace=wrap;html=1;aspect=fixed;glass=0;gradientColor=none;fillColor=#330000;" vertex="1" parent="1">
          <mxGeometry x="400" y="320" width="40" height="40" as="geometry" />
        </mxCell>
        <mxCell id="gbo9J5vM7Mq-yWydvTOt-28" value="" style="whiteSpace=wrap;html=1;aspect=fixed;glass=0;gradientColor=none;fillColor=#330000;" vertex="1" parent="1">
          <mxGeometry x="400" y="280" width="40" height="40" as="geometry" />
        </mxCell>
        <mxCell id="gbo9J5vM7Mq-yWydvTOt-29" value="" style="whiteSpace=wrap;html=1;aspect=fixed;glass=0;gradientColor=none;fillColor=#330000;" vertex="1" parent="1">
          <mxGeometry x="440" y="280" width="40" height="40" as="geometry" />
        </mxCell>
        <mxCell id="gbo9J5vM7Mq-yWydvTOt-30" value="" style="whiteSpace=wrap;html=1;aspect=fixed;glass=0;gradientColor=none;fillColor=#330000;" vertex="1" parent="1">
          <mxGeometry x="480" y="280" width="40" height="40" as="geometry" />
        </mxCell>
        <mxCell id="gbo9J5vM7Mq-yWydvTOt-31" value="" style="whiteSpace=wrap;html=1;aspect=fixed;glass=0;gradientColor=none;fillColor=#330000;" vertex="1" parent="1">
          <mxGeometry x="440" y="240" width="40" height="40" as="geometry" />
        </mxCell>
        <mxCell id="gbo9J5vM7Mq-yWydvTOt-32" value="" style="whiteSpace=wrap;html=1;aspect=fixed;glass=0;gradientColor=none;fillColor=#FF3333;" vertex="1" parent="1">
          <mxGeometry x="360" y="360" width="40" height="40" as="geometry" />
        </mxCell>
        <mxCell id="gbo9J5vM7Mq-yWydvTOt-33" value="" style="whiteSpace=wrap;html=1;aspect=fixed;glass=0;gradientColor=none;fillColor=#330000;" vertex="1" parent="1">
          <mxGeometry x="520" y="240" width="40" height="40" as="geometry" />
        </mxCell>
        <mxCell id="gbo9J5vM7Mq-yWydvTOt-34" value="" style="whiteSpace=wrap;html=1;aspect=fixed;glass=0;gradientColor=none;fillColor=#330000;" vertex="1" parent="1">
          <mxGeometry x="480" y="200" width="40" height="40" as="geometry" />
        </mxCell>
        <mxCell id="gbo9J5vM7Mq-yWydvTOt-35" value="" style="whiteSpace=wrap;html=1;aspect=fixed;glass=0;gradientColor=none;fillColor=#330000;" vertex="1" parent="1">
          <mxGeometry x="400" y="360" width="40" height="40" as="geometry" />
        </mxCell>
        <mxCell id="gbo9J5vM7Mq-yWydvTOt-36" value="" style="whiteSpace=wrap;html=1;aspect=fixed;glass=0;gradientColor=none;fillColor=#330000;" vertex="1" parent="1">
          <mxGeometry x="480" y="240" width="40" height="40" as="geometry" />
        </mxCell>
        <mxCell id="gbo9J5vM7Mq-yWydvTOt-41" value="" style="whiteSpace=wrap;html=1;aspect=fixed;glass=0;gradientColor=none;fillColor=#330000;" vertex="1" parent="1">
          <mxGeometry x="360" y="320" width="40" height="40" as="geometry" />
        </mxCell>
        <mxCell id="gbo9J5vM7Mq-yWydvTOt-42" value="" style="whiteSpace=wrap;html=1;aspect=fixed;glass=0;gradientColor=none;fillColor=#330000;" vertex="1" parent="1">
          <mxGeometry x="360" y="360" width="40" height="40" as="geometry" />
        </mxCell>
        <mxCell id="gbo9J5vM7Mq-yWydvTOt-43" value="" style="endArrow=classic;html=1;entryX=0.5;entryY=0;entryDx=0;entryDy=0;" edge="1" parent="1" target="gbo9J5vM7Mq-yWydvTOt-19">
          <mxGeometry width="50" height="50" relative="1" as="geometry">
            <mxPoint x="360" y="100" as="sourcePoint" />
            <mxPoint x="520" y="230" as="targetPoint" />
          </mxGeometry>
        </mxCell>
        <mxCell id="gbo9J5vM7Mq-yWydvTOt-44" value="起点" style="text;html=1;align=center;verticalAlign=middle;resizable=0;points=[];autosize=1;" vertex="1" parent="1">
          <mxGeometry x="340" y="80" width="40" height="20" as="geometry" />
        </mxCell>
        <mxCell id="gbo9J5vM7Mq-yWydvTOt-45" value="" style="endArrow=classic;html=1;entryX=1;entryY=0.5;entryDx=0;entryDy=0;" edge="1" parent="1" target="gbo9J5vM7Mq-yWydvTOt-22">
          <mxGeometry width="50" height="50" relative="1" as="geometry">
            <mxPoint x="609" y="370" as="sourcePoint" />
            <mxPoint x="350" y="170" as="targetPoint" />
          </mxGeometry>
        </mxCell>
        <mxCell id="gbo9J5vM7Mq-yWydvTOt-46" value="终点" style="text;html=1;align=center;verticalAlign=middle;resizable=0;points=[];autosize=1;" vertex="1" parent="1">
          <mxGeometry x="610" y="360" width="40" height="20" as="geometry" />
        </mxCell>
        <mxCell id="gbo9J5vM7Mq-yWydvTOt-47" value="" style="endArrow=classic;html=1;" edge="1" parent="1">
          <mxGeometry width="50" height="50" relative="1" as="geometry">
            <mxPoint x="530" y="150" as="sourcePoint" />
            <mxPoint x="500" y="200" as="targetPoint" />
          </mxGeometry>
        </mxCell>
        <mxCell id="gbo9J5vM7Mq-yWydvTOt-48" value="障碍" style="text;html=1;strokeColor=none;fillColor=none;align=center;verticalAlign=middle;whiteSpace=wrap;rounded=0;glass=0;" vertex="1" parent="1">
          <mxGeometry x="520" y="130" width="40" height="20" as="geometry" />
        </mxCell>
      </root>
    </mxGraphModel>
  </diagram>
</mxfile>
